<svg xmlns="http://www.w3.org/2000/svg" width="400" height="550" viewBox="0 0 400 550">
  <g transform="translate(18,320) scale(1.5)">
    <g transform="translate(34.89,0) scale(0.7000)">
      <rect x="4" y="6" width="32" height="68" rx="5" fill="rgba(37,99,235,0.12)"/>
      <path d="M30,6 L8,6 L8,74 L30,74" fill="none" stroke="#2563eb" stroke-width="6.5" stroke-linecap="round" stroke-linejoin="round"/>
      <rect x="64" y="6" width="32" height="68" rx="5" fill="rgba(234,88,12,0.12)"/>
      <path d="M70,6 L92,6 L92,74 L70,74" fill="none" stroke="#ea580c" stroke-width="6.5" stroke-linecap="round" stroke-linejoin="round"/>
      <line x1="32" y1="30" x2="68" y2="30" stroke="#009E80" stroke-width="7" stroke-linecap="round"/>
      <line x1="32" y1="50" x2="68" y2="50" stroke="#009E80" stroke-width="7" stroke-linecap="round"/>
    </g>
    <g transform="translate(0.00,70.00)">
      <path d="M8.064 16.352Q6.2943999999999996 16.352 5.297599999999999 15.3664Q4.3008 14.3808 4.3008 12.656V6.5632H0.9632V4.032H4.3008V0.5600000000000005H7.1232V4.032H11.8496V6.5632H7.1232V12.656Q7.1232 13.8208 8.2656 13.8208H11.6256V16.352Z M17.8976 16.576Q15.9936 16.576 14.896 15.568000000000001Q13.7984 14.56 13.7984 12.8576Q13.7984 11.0432 15.008000000000001 10.0576Q16.2176 9.072 18.435200000000002 9.072H21.503999999999998V8.0192Q21.503999999999998 7.123200000000001 20.921599999999998 6.6192Q20.3392 6.1152 19.331200000000003 6.1152Q18.4128 6.1152 17.808 6.5184Q17.203200000000002 6.9216 17.0912 7.616H14.3584Q14.56 5.8688 15.926400000000001 4.8384Q17.2928 3.808 19.4208 3.808Q21.6832 3.808 22.9936 4.9392000000000005Q24.304000000000002 6.070400000000001 24.304000000000002 7.9968V16.352H21.593600000000002V14.201600000000001H21.1456L21.593600000000002 13.5968Q21.593600000000002 14.9632 20.5856 15.7696Q19.5776 16.576 17.8976 16.576ZM18.816000000000003 14.4704Q20.0032 14.4704 20.7536 13.8656Q21.503999999999998 13.2608 21.503999999999998 12.2976V10.796800000000001H18.48Q17.6288 10.796800000000001 17.113599999999998 11.2896Q16.5984 11.782399999999999 16.5984 12.5888Q16.5984 13.4624 17.192 13.9664Q17.785600000000002 14.4704 18.816000000000003 14.4704Z M26.7904 16.352V13.7984H31.0912V6.5632H27.3504V4.032H33.7792V13.7984H37.5872V16.352ZM32.2112 1.9711999999999996Q31.36 1.9711999999999996 30.867199999999997 1.5343999999999998Q30.374399999999998 1.0976 30.374399999999998 0.3583999999999996Q30.374399999999998 -0.3808000000000007 30.867199999999997 -0.8176000000000005Q31.36 -1.2544000000000004 32.2112 -1.2544000000000004Q33.0624 -1.2544000000000004 33.5552 -0.8176000000000005Q34.048 -0.3808000000000007 34.048 0.3583999999999996Q34.048 1.0976 33.5552 1.5343999999999998Q33.0624 1.9711999999999996 32.2112 1.9711999999999996Z M39.35680000000001 16.352V4.032H42.089600000000004V6.384H42.851200000000006L42.089600000000004 7.0336Q42.089600000000004 5.510400000000001 42.9744 4.6592Q43.8592 3.808 45.40480000000001 3.808Q47.2192 3.808 48.3056 5.0176Q49.392 6.2272 49.392 8.265600000000001V16.352H46.592000000000006V8.556799999999999Q46.592000000000006 7.4368 46.009600000000006 6.832Q45.427200000000006 6.2272 44.37440000000001 6.2272Q43.34400000000001 6.2272 42.750400000000006 6.8544Q42.156800000000004 7.4816 42.156800000000004 8.6464V16.352Z M56.918400000000005 16.576Q55.3504 16.576 54.1856 15.9712Q53.0208 15.3664 52.382400000000004 14.280000000000001Q51.744 13.1936 51.744 11.7376V8.6464Q51.744 7.1904 52.382400000000004 6.104Q53.0208 5.0176 54.1856 4.4128Q55.3504 3.808 56.918400000000005 3.808Q58.464 3.808 59.617599999999996 4.4128Q60.7712 5.0176 61.4096 6.104Q62.048 7.1904 62.048 8.6464V10.864H54.4544V11.7376Q54.4544 13.0368 55.0816 13.6976Q55.708800000000004 14.3584 56.9408 14.3584Q57.8816 14.3584 58.464 14.0336Q59.046400000000006 13.7088 59.2032 13.0816H61.9584Q61.644800000000004 14.672 60.2672 15.624Q58.8896 16.576 56.918400000000005 16.576ZM59.3376 9.296V8.624Q59.3376 7.347200000000001 58.7328 6.664000000000001Q58.128 5.9808 56.918400000000005 5.9808Q55.708800000000004 5.9808 55.0816 6.6752Q54.4544 7.3696 54.4544 8.6464V9.116800000000001L59.5392 9.072Z M64.8256 16.352V4.032H67.4688V6.384H68.1632L67.3344 7.8176000000000005Q67.3344 5.824 68.2304 4.816Q69.1264 3.808 70.8736 3.808Q72.8672 3.808 74.0096 5.04Q75.152 6.272 75.152 8.4448V9.340800000000002H72.2176V8.6464Q72.2176 7.459200000000001 71.6016 6.8096000000000005Q70.9856 6.16 69.9104 6.16Q68.8128 6.16 68.2192 6.8096000000000005Q67.62559999999999 7.459200000000001 67.62559999999999 8.6464V16.352Z" fill="#0C1018"/>
      <path d="M82.88 16.576Q82.0512 16.576 81.5696 16.0944Q81.088 15.6128 81.088 14.8064Q81.088 13.955200000000001 81.5696 13.4624Q82.0512 12.9696 82.88 12.9696Q83.7088 12.9696 84.1904 13.4624Q84.672 13.955200000000001 84.672 14.8064Q84.672 15.6128 84.1904 16.0944Q83.7088 16.576 82.88 16.576Z M94.8192 16.576Q92.9824 16.576 91.8512 15.344000000000001Q90.72 14.112 90.72 12.0288V8.377600000000001Q90.72 6.272 91.84 5.04Q92.96 3.808 94.8192 3.808Q96.36479999999999 3.808 97.3168 4.6592Q98.2688 5.510400000000001 98.2688 6.944000000000001L97.79839999999999 6.2048000000000005H98.22399999999999L98.2016 3.5168V0.0H99.9712V16.352H98.2016V14.1792H97.7312L98.2688 13.440000000000001Q98.2688 14.896 97.3168 15.736Q96.36479999999999 16.576 94.8192 16.576ZM95.3792 15.0304Q96.70079999999999 15.0304 97.4512 14.212800000000001Q98.2016 13.3952 98.2016 11.9392V8.4448Q98.2016 6.988800000000001 97.4512 6.171200000000001Q96.70079999999999 5.3536 95.3792 5.3536Q94.03519999999999 5.3536 93.27359999999999 6.16Q92.512 6.9664 92.512 8.4448V11.9392Q92.512 13.4176 93.27359999999999 14.224Q94.03519999999999 15.0304 95.3792 15.0304Z M107.96799999999999 16.576Q106.53439999999999 16.576 105.48159999999999 16.0048Q104.4288 15.4336 103.84639999999999 14.3808Q103.264 13.328 103.264 11.9392V8.4448Q103.264 7.0336 103.84639999999999 5.992Q104.4288 4.9504 105.48159999999999 4.3792Q106.53439999999999 3.808 107.96799999999999 3.808Q109.40159999999999 3.808 110.45439999999999 4.3792Q111.50719999999998 4.9504 112.08959999999999 5.992Q112.672 7.0336 112.672 8.4448V10.6176H105.01119999999999V11.9392Q105.01119999999999 13.440000000000001 105.78399999999999 14.2576Q106.5568 15.0752 107.96799999999999 15.0752Q109.1552 15.0752 109.90559999999999 14.604800000000001Q110.65599999999999 14.1344 110.85759999999999 13.2384H112.62719999999999Q112.3808 14.784 111.12639999999999 15.68Q109.87199999999999 16.576 107.96799999999999 16.576ZM110.92479999999999 9.4304V8.4448Q110.92479999999999 6.944000000000001 110.16319999999999 6.1264Q109.40159999999999 5.3088 107.96799999999999 5.3088Q106.5568 5.3088 105.78399999999999 6.1264Q105.01119999999999 6.944000000000001 105.01119999999999 8.4448V9.2288H111.10399999999998Z M119.32479999999998 16.352 115.15839999999999 4.032H116.97279999999999L119.81759999999998 12.5664Q120.04159999999999 13.2608 120.24319999999999 13.943999999999999Q120.44479999999999 14.6272 120.55679999999998 15.008000000000001Q120.66879999999999 14.6272 120.87039999999999 13.943999999999999Q121.07199999999999 13.2608 121.29599999999999 12.5664L124.07359999999998 4.032H125.86559999999999L121.69919999999999 16.352Z M128.128 18.816 136.1024 -2.2399999999999984H137.98399999999998L130.00959999999998 18.816Z" fill="#009E80"/>
    </g>
  </g>
</svg>